<mxfile host="app.diagrams.net" agent="Mozilla/5.0 (Windows NT 10.0; Win64; x64) AppleWebKit/537.36 (KHTML, like Gecko) Chrome/132.0.0.0 Safari/537.36" version="26.0.11">
  <diagram name="Page-1" id="6Zx2jlS2gQvcZ7OIBVgs">
    <mxGraphModel dx="2812" dy="1972" grid="1" gridSize="10" guides="1" tooltips="1" connect="1" arrows="1" fold="1" page="1" pageScale="1" pageWidth="827" pageHeight="1169" math="0" shadow="0">
      <root>
        <mxCell id="0" />
        <mxCell id="1" parent="0" />
        <mxCell id="tNdFALO9EnwkVkgYSumE-6" value="&lt;p style=&quot;margin:0px;margin-top:4px;text-align:center;&quot;&gt;&lt;b&gt;User&lt;/b&gt;&lt;/p&gt;&lt;hr size=&quot;1&quot; style=&quot;border-style:solid;&quot;&gt;&lt;p style=&quot;margin:0px;margin-left:4px;&quot;&gt;- id: int&lt;/p&gt;&lt;p style=&quot;margin:0px;margin-left:4px;&quot;&gt;- name: string&lt;/p&gt;&lt;p style=&quot;margin:0px;margin-left:4px;&quot;&gt;- email: string&lt;/p&gt;&lt;p style=&quot;margin:0px;margin-left:4px;&quot;&gt;- email_verified_at: timestamp&lt;/p&gt;&lt;p style=&quot;margin:0px;margin-left:4px;&quot;&gt;- password: string&lt;/p&gt;&lt;p style=&quot;margin:0px;margin-left:4px;&quot;&gt;&lt;span style=&quot;background-color: transparent; color: light-dark(rgb(0, 0, 0), rgb(255, 255, 255));&quot;&gt;- remember_token: string&lt;/span&gt;&lt;/p&gt;&lt;p style=&quot;margin:0px;margin-left:4px;&quot;&gt;- created_at: timestamp&amp;nbsp;&lt;/p&gt;&lt;p style=&quot;margin:0px;margin-left:4px;&quot;&gt;- updated_at: timestamp&lt;/p&gt;&lt;hr size=&quot;1&quot; style=&quot;border-style:solid;&quot;&gt;&lt;p style=&quot;margin: 0px 0px 0px 4px;&quot;&gt;+ login(email: string, password: string): boolean&amp;nbsp;&lt;/p&gt;&lt;p style=&quot;margin: 0px 0px 0px 4px;&quot;&gt;+ logout(): void&lt;/p&gt;&lt;p style=&quot;margin: 0px 0px 0px 4px;&quot;&gt;+ updateProfile(name: string, email: string): void&amp;nbsp;&lt;/p&gt;&lt;p style=&quot;margin: 0px 0px 0px 4px;&quot;&gt;+ placeOrder(product: Product, quantity: int): Commande&lt;/p&gt;&lt;p style=&quot;margin: 0px 0px 0px 4px;&quot;&gt;+ viewOrders(): List&amp;lt;Commande&amp;gt;&lt;/p&gt;&lt;p style=&quot;margin:0px;margin-left:4px;&quot;&gt;&lt;br&gt;&lt;/p&gt;&lt;p style=&quot;margin:0px;margin-left:4px;&quot;&gt;&lt;br&gt;&lt;/p&gt;&lt;p style=&quot;margin:0px;margin-left:4px;&quot;&gt;&lt;br&gt;&lt;/p&gt;" style="verticalAlign=top;align=left;overflow=fill;html=1;whiteSpace=wrap;" parent="1" vertex="1">
          <mxGeometry x="-80.5" y="115" width="320" height="240" as="geometry" />
        </mxCell>
        <mxCell id="tNdFALO9EnwkVkgYSumE-7" value="&lt;p style=&quot;margin:0px;margin-top:4px;text-align:center;&quot;&gt;&lt;b&gt;Category&lt;/b&gt;&lt;/p&gt;&lt;hr size=&quot;1&quot; style=&quot;border-style:solid;&quot;&gt;&lt;p style=&quot;margin:0px;margin-left:4px;&quot;&gt;- id: int&amp;nbsp;&amp;nbsp;&lt;/p&gt;&lt;p style=&quot;margin:0px;margin-left:4px;&quot;&gt;- name: string&amp;nbsp;&lt;/p&gt;&lt;hr size=&quot;1&quot; style=&quot;border-style:solid;&quot;&gt;&lt;p style=&quot;margin: 0px 0px 0px 4px;&quot;&gt;+ updateCategory(name: srting)&lt;br&gt;&lt;/p&gt;" style="verticalAlign=top;align=left;overflow=fill;html=1;whiteSpace=wrap;" parent="1" vertex="1">
          <mxGeometry x="329.5" y="-155" width="271" height="100" as="geometry" />
        </mxCell>
        <mxCell id="tNdFALO9EnwkVkgYSumE-8" value="&lt;p style=&quot;margin:0px;margin-top:4px;text-align:center;&quot;&gt;&lt;b&gt;User adresse&amp;nbsp;&lt;/b&gt;&lt;/p&gt;&lt;hr size=&quot;1&quot; style=&quot;border-style:solid;&quot;&gt;&lt;p style=&quot;margin:0px;margin-left:4px;&quot;&gt;- id: int&lt;/p&gt;&lt;p style=&quot;margin:0px;margin-left:4px;&quot;&gt;- user_id: int&lt;/p&gt;&lt;p style=&quot;margin:0px;margin-left:4px;&quot;&gt;- address1: text&lt;/p&gt;&lt;p style=&quot;margin:0px;margin-left:4px;&quot;&gt;- address2: text&amp;nbsp;&amp;nbsp;&lt;/p&gt;&lt;p style=&quot;margin:0px;margin-left:4px;&quot;&gt;- city: string&amp;nbsp; &amp;nbsp;&amp;nbsp;&lt;/p&gt;&lt;p style=&quot;margin:0px;margin-left:4px;&quot;&gt;- state: string&amp;nbsp; &amp;nbsp;&lt;/p&gt;&lt;p style=&quot;margin:0px;margin-left:4px;&quot;&gt;- postcode: string&lt;/p&gt;&lt;p style=&quot;margin:0px;margin-left:4px;&quot;&gt;- country: string&amp;nbsp;&lt;/p&gt;&lt;p style=&quot;margin:0px;margin-left:4px;&quot;&gt;- phone: string&amp;nbsp;&amp;nbsp;&lt;/p&gt;&lt;p style=&quot;margin:0px;margin-left:4px;&quot;&gt;&amp;nbsp;- created_at: timestamp&amp;nbsp;&lt;/p&gt;&lt;p style=&quot;margin:0px;margin-left:4px;&quot;&gt;- updated_at: timestamp&amp;nbsp;&lt;/p&gt;&lt;hr size=&quot;1&quot; style=&quot;border-style:solid;&quot;&gt;&lt;p data-pm-slice=&quot;0 0 []&quot;&gt;&amp;nbsp;+ updateAddress(address1: string, city: string, postcode: string): void&lt;/p&gt;" style="verticalAlign=top;align=left;overflow=fill;html=1;whiteSpace=wrap;" parent="1" vertex="1">
          <mxGeometry x="-109" y="-170" width="377" height="230" as="geometry" />
        </mxCell>
        <mxCell id="tNdFALO9EnwkVkgYSumE-9" value="&lt;p style=&quot;margin:0px;margin-top:4px;text-align:center;&quot;&gt;&lt;b&gt;Cart&lt;/b&gt;&lt;/p&gt;&lt;hr size=&quot;1&quot; style=&quot;border-style:solid;&quot;&gt;&lt;p style=&quot;margin:0px;margin-left:4px;&quot;&gt;- id: int&lt;/p&gt;&lt;p style=&quot;margin:0px;margin-left:4px;&quot;&gt;- user_id: int&lt;/p&gt;&lt;p style=&quot;margin:0px;margin-left:4px;&quot;&gt;- product_id: int&lt;span style=&quot;background-color: transparent; color: light-dark(rgb(0, 0, 0), rgb(255, 255, 255));&quot;&gt;&amp;nbsp; &amp;nbsp;&lt;/span&gt;&lt;/p&gt;&lt;p style=&quot;margin:0px;margin-left:4px;&quot;&gt;- size: string&amp;nbsp; &amp;nbsp;&amp;nbsp;&lt;/p&gt;&lt;p style=&quot;margin:0px;margin-left:4px;&quot;&gt;- quantity: int&amp;nbsp;&lt;/p&gt;&lt;p style=&quot;margin:0px;margin-left:4px;&quot;&gt;- created_at: timestamp&amp;nbsp;&lt;/p&gt;&lt;p style=&quot;margin:0px;margin-left:4px;&quot;&gt;- updated_at: timestamp&amp;nbsp;&lt;/p&gt;&lt;hr size=&quot;1&quot; style=&quot;border-style:solid;&quot;&gt;&lt;p style=&quot;margin:0px;margin-left:4px;&quot;&gt;+ addProduct(product: Product, quantity: int): void&lt;/p&gt;&lt;p style=&quot;margin:0px;margin-left:4px;&quot;&gt;+ removeProduct(product: Product): void&lt;/p&gt;&lt;p style=&quot;margin:0px;margin-left:4px;&quot;&gt;+ calculateTotal(): decimal&lt;/p&gt;&lt;p style=&quot;margin:0px;margin-left:4px;&quot;&gt;+ checkout(): Order&lt;/p&gt;&lt;p style=&quot;margin:0px;margin-left:4px;&quot;&gt;&lt;br&gt;&lt;/p&gt;" style="verticalAlign=top;align=left;overflow=fill;html=1;whiteSpace=wrap;" parent="1" vertex="1">
          <mxGeometry x="660" y="23" width="190" height="240" as="geometry" />
        </mxCell>
        <mxCell id="tNdFALO9EnwkVkgYSumE-10" value="&lt;p style=&quot;margin:0px;margin-top:4px;text-align:center;&quot;&gt;&lt;b&gt;Admin&lt;/b&gt;&lt;/p&gt;&lt;hr size=&quot;1&quot; style=&quot;border-style:solid;&quot;&gt;&lt;p style=&quot;margin: 0px 0px 0px 4px;&quot;&gt;- isAdmin: boolean&lt;/p&gt;&lt;hr size=&quot;1&quot; style=&quot;border-style:solid;&quot;&gt;&lt;p style=&quot;margin: 0px 0px 0px 4px;&quot;&gt;+ manageUsers(): List&amp;lt;User&amp;gt;&lt;/p&gt;&lt;p style=&quot;margin: 0px 0px 0px 4px;&quot;&gt;+ addProduct(name: string, description: string, price: decimal, category: Category): Product&lt;/p&gt;&lt;p style=&quot;margin: 0px 0px 0px 4px;&quot;&gt;+ removeProduct(product: Product): void&amp;nbsp;&lt;/p&gt;&lt;p style=&quot;margin: 0px 0px 0px 4px;&quot;&gt;+ updateProduct(product: Product, name: string, description: string, price: decimal): void&lt;/p&gt;&lt;p style=&quot;margin: 0px 0px 0px 4px;&quot;&gt;+ manageOrders(): List&amp;lt;Order&amp;gt;&lt;/p&gt;&lt;p style=&quot;margin: 0px 0px 0px 4px;&quot;&gt;+ updateOrderStatus(order: Order, newStatus: string): void&amp;nbsp;&lt;/p&gt;&lt;p style=&quot;margin: 0px 0px 0px 4px;&quot;&gt;+ addSpecialOffer(title: string, description: string, image: string): SpecialOffer&amp;nbsp;&lt;/p&gt;&lt;p style=&quot;margin: 0px 0px 0px 4px;&quot;&gt;+ updateSpecialOffer(title: string, description: string, image: string): SpecialOffer&amp;nbsp;&lt;/p&gt;&lt;p style=&quot;margin: 0px 0px 0px 4px;&quot;&gt;+ removeSpecialOffer(offer: SpecialOffer): void&amp;nbsp;&lt;/p&gt;" style="verticalAlign=top;align=left;overflow=fill;html=1;whiteSpace=wrap;" parent="1" vertex="1">
          <mxGeometry x="-650" y="140" width="520" height="190" as="geometry" />
        </mxCell>
        <mxCell id="tNdFALO9EnwkVkgYSumE-12" value="" style="endArrow=block;endSize=16;endFill=0;html=1;rounded=0;exitX=1;exitY=0.5;exitDx=0;exitDy=0;entryX=0;entryY=0.5;entryDx=0;entryDy=0;" parent="1" source="tNdFALO9EnwkVkgYSumE-10" target="tNdFALO9EnwkVkgYSumE-6" edge="1">
          <mxGeometry width="160" relative="1" as="geometry">
            <mxPoint x="250" y="420" as="sourcePoint" />
            <mxPoint x="410" y="420" as="targetPoint" />
          </mxGeometry>
        </mxCell>
        <mxCell id="tNdFALO9EnwkVkgYSumE-13" value="&lt;p style=&quot;margin:0px;margin-top:4px;text-align:center;&quot;&gt;&lt;b&gt;Product&lt;/b&gt;&lt;/p&gt;&lt;hr size=&quot;1&quot; style=&quot;border-style:solid;&quot;&gt;&lt;p style=&quot;margin:0px;margin-left:4px;&quot;&gt;- id: int&lt;/p&gt;&lt;p style=&quot;margin:0px;margin-left:4px;&quot;&gt;- name: string&lt;/p&gt;&lt;p style=&quot;margin:0px;margin-left:4px;&quot;&gt;- description: string&lt;/p&gt;&lt;p style=&quot;margin:0px;margin-left:4px;&quot;&gt;- size: string&lt;/p&gt;&lt;p style=&quot;margin:0px;margin-left:4px;&quot;&gt;- stock: int&lt;/p&gt;&lt;p style=&quot;margin:0px;margin-left:4px;&quot;&gt;- price: decimal&lt;/p&gt;&lt;p style=&quot;margin:0px;margin-left:4px;&quot;&gt;- old_price: decimal&lt;/p&gt;&lt;p style=&quot;margin:0px;margin-left:4px;&quot;&gt;- category_id: int&lt;/p&gt;&lt;p style=&quot;margin:0px;margin-left:4px;&quot;&gt;- image: string&lt;/p&gt;&lt;p style=&quot;margin:0px;margin-left:4px;&quot;&gt;- hover_image: string&lt;/p&gt;&lt;p style=&quot;margin:0px;margin-left:4px;&quot;&gt;- created_at: timestamp&lt;/p&gt;&lt;p style=&quot;margin:0px;margin-left:4px;&quot;&gt;- updated_at: timestamp&lt;/p&gt;&lt;hr size=&quot;1&quot; style=&quot;border-style:solid;&quot;&gt;&lt;p style=&quot;margin: 0px 0px 0px 4px;&quot;&gt;+ updateStock(quantity: int): void&amp;nbsp;&lt;/p&gt;&lt;p style=&quot;margin: 0px 0px 0px 4px;&quot;&gt;+ applyDiscount(discount: decimal): void&lt;/p&gt;&lt;p style=&quot;margin: 0px 0px 0px 4px;&quot;&gt;+ isAvailable(): boolean&amp;nbsp;&lt;/p&gt;" style="verticalAlign=top;align=left;overflow=fill;html=1;whiteSpace=wrap;" parent="1" vertex="1">
          <mxGeometry x="350" y="7" width="230" height="270" as="geometry" />
        </mxCell>
        <mxCell id="tNdFALO9EnwkVkgYSumE-14" value="&lt;p style=&quot;margin:0px;margin-top:4px;text-align:center;&quot;&gt;&lt;b&gt;Spicail offer&lt;/b&gt;&lt;/p&gt;&lt;hr size=&quot;1&quot; style=&quot;border-style:solid;&quot;&gt;&lt;p style=&quot;margin:0px;margin-left:4px;&quot;&gt;- id: int&lt;/p&gt;&lt;p style=&quot;margin:0px;margin-left:4px;&quot;&gt;- title: string&lt;/p&gt;&lt;p style=&quot;margin:0px;margin-left:4px;&quot;&gt;- description: text&lt;/p&gt;&lt;p style=&quot;margin:0px;margin-left:4px;&quot;&gt;- image: string&lt;/p&gt;&lt;p style=&quot;margin:0px;margin-left:4px;&quot;&gt;- created_at: timestamp&lt;/p&gt;&lt;p style=&quot;margin:0px;margin-left:4px;&quot;&gt;- updated_at: timestamp&lt;/p&gt;&lt;hr size=&quot;1&quot; style=&quot;border-style:solid;&quot;&gt;&lt;p style=&quot;margin: 0px 0px 0px 4px;&quot;&gt;+ updateSpecialOffer(title: string, description: string, image: string): void&lt;/p&gt;" style="verticalAlign=top;align=left;overflow=fill;html=1;whiteSpace=wrap;" parent="1" vertex="1">
          <mxGeometry x="351" y="453" width="230" height="170" as="geometry" />
        </mxCell>
        <mxCell id="tNdFALO9EnwkVkgYSumE-15" value="&lt;p style=&quot;margin:0px;margin-top:4px;text-align:center;&quot;&gt;&lt;b&gt;Contact&lt;/b&gt;&lt;/p&gt;&lt;hr size=&quot;1&quot; style=&quot;border-style:solid;&quot;&gt;&lt;p style=&quot;margin:0px;margin-left:4px;&quot;&gt;- id: int&lt;/p&gt;&lt;p style=&quot;margin:0px;margin-left:4px;&quot;&gt;- name: string&lt;/p&gt;&lt;p style=&quot;margin:0px;margin-left:4px;&quot;&gt;- email: string&lt;/p&gt;&lt;p style=&quot;margin:0px;margin-left:4px;&quot;&gt;- message: text&lt;/p&gt;&lt;p style=&quot;margin:0px;margin-left:4px;&quot;&gt;- created_at: timestamp&lt;/p&gt;&lt;p style=&quot;margin:0px;margin-left:4px;&quot;&gt;- updated_at: timestamp&lt;/p&gt;&lt;hr size=&quot;1&quot; style=&quot;border-style:solid;&quot;&gt;&lt;p style=&quot;margin: 0px 0px 0px 4px;&quot;&gt;+ sendMessage(): void&lt;/p&gt;" style="verticalAlign=top;align=left;overflow=fill;html=1;whiteSpace=wrap;" parent="1" vertex="1">
          <mxGeometry x="351" y="287" width="230" height="153" as="geometry" />
        </mxCell>
        <mxCell id="tNdFALO9EnwkVkgYSumE-16" value="" style="endArrow=diamondThin;endFill=1;endSize=24;html=1;rounded=0;entryX=1;entryY=0.5;entryDx=0;entryDy=0;exitX=0;exitY=0.5;exitDx=0;exitDy=0;" parent="1" source="tNdFALO9EnwkVkgYSumE-9" target="tNdFALO9EnwkVkgYSumE-13" edge="1">
          <mxGeometry width="160" relative="1" as="geometry">
            <mxPoint x="511" y="347" as="sourcePoint" />
            <mxPoint x="671" y="347" as="targetPoint" />
          </mxGeometry>
        </mxCell>
        <mxCell id="tNdFALO9EnwkVkgYSumE-17" value="" style="endArrow=diamondThin;endFill=0;endSize=24;html=1;rounded=0;exitX=0.5;exitY=0;exitDx=0;exitDy=0;entryX=0.5;entryY=1;entryDx=0;entryDy=0;" parent="1" source="tNdFALO9EnwkVkgYSumE-13" target="tNdFALO9EnwkVkgYSumE-7" edge="1">
          <mxGeometry width="160" relative="1" as="geometry">
            <mxPoint x="501" y="337" as="sourcePoint" />
            <mxPoint x="661" y="337" as="targetPoint" />
          </mxGeometry>
        </mxCell>
        <mxCell id="tNdFALO9EnwkVkgYSumE-21" value="" style="endArrow=none;html=1;edgeStyle=orthogonalEdgeStyle;rounded=0;exitX=1.001;exitY=0.357;exitDx=0;exitDy=0;entryX=0.004;entryY=0.393;entryDx=0;entryDy=0;exitPerimeter=0;entryPerimeter=0;" parent="1" edge="1" target="tNdFALO9EnwkVkgYSumE-13">
          <mxGeometry relative="1" as="geometry">
            <mxPoint x="240.32000000000016" y="205.38999999999987" as="sourcePoint" />
            <mxPoint x="409" y="204" as="targetPoint" />
          </mxGeometry>
        </mxCell>
        <mxCell id="tNdFALO9EnwkVkgYSumE-24" value="" style="endArrow=diamondThin;endFill=0;endSize=24;html=1;rounded=0;exitX=0.5;exitY=1;exitDx=0;exitDy=0;entryX=0.5;entryY=0;entryDx=0;entryDy=0;" parent="1" source="tNdFALO9EnwkVkgYSumE-8" target="tNdFALO9EnwkVkgYSumE-6" edge="1">
          <mxGeometry width="160" relative="1" as="geometry">
            <mxPoint x="410" y="110" as="sourcePoint" />
            <mxPoint x="570" y="110" as="targetPoint" />
          </mxGeometry>
        </mxCell>
        <mxCell id="tNdFALO9EnwkVkgYSumE-26" value="" style="endArrow=none;html=1;edgeStyle=orthogonalEdgeStyle;rounded=0;entryX=0;entryY=0.5;entryDx=0;entryDy=0;exitX=1;exitY=0.75;exitDx=0;exitDy=0;" parent="1" source="tNdFALO9EnwkVkgYSumE-6" target="tNdFALO9EnwkVkgYSumE-15" edge="1">
          <mxGeometry relative="1" as="geometry">
            <mxPoint x="240" y="300" as="sourcePoint" />
            <mxPoint x="400" y="300" as="targetPoint" />
          </mxGeometry>
        </mxCell>
        <mxCell id="tNdFALO9EnwkVkgYSumE-31" value="1" style="text;html=1;align=center;verticalAlign=middle;resizable=0;points=[];autosize=1;strokeColor=none;fillColor=none;" parent="1" vertex="1">
          <mxGeometry x="240" y="180" width="30" height="30" as="geometry" />
        </mxCell>
        <mxCell id="tNdFALO9EnwkVkgYSumE-32" value="1" style="text;html=1;align=center;verticalAlign=middle;resizable=0;points=[];autosize=1;strokeColor=none;fillColor=none;" parent="1" vertex="1">
          <mxGeometry x="235" y="270" width="30" height="30" as="geometry" />
        </mxCell>
        <mxCell id="tNdFALO9EnwkVkgYSumE-33" value="1" style="text;html=1;align=center;verticalAlign=middle;resizable=0;points=[];autosize=1;strokeColor=none;fillColor=none;" parent="1" vertex="1">
          <mxGeometry x="156" y="353" width="30" height="30" as="geometry" />
        </mxCell>
        <mxCell id="tNdFALO9EnwkVkgYSumE-34" value="1" style="text;html=1;align=center;verticalAlign=middle;resizable=0;points=[];autosize=1;strokeColor=none;fillColor=none;" parent="1" vertex="1">
          <mxGeometry x="80" y="61" width="30" height="30" as="geometry" />
        </mxCell>
        <mxCell id="tNdFALO9EnwkVkgYSumE-36" value="0 .. *" style="text;html=1;align=center;verticalAlign=middle;resizable=0;points=[];autosize=1;strokeColor=none;fillColor=none;" parent="1" vertex="1">
          <mxGeometry x="616" y="119" width="50" height="30" as="geometry" />
        </mxCell>
        <mxCell id="tNdFALO9EnwkVkgYSumE-38" value="0 .. *" style="text;html=1;align=center;verticalAlign=middle;resizable=0;points=[];autosize=1;strokeColor=none;fillColor=none;" parent="1" vertex="1">
          <mxGeometry x="308" y="338" width="50" height="30" as="geometry" />
        </mxCell>
        <mxCell id="wgfpph5YBYZ9XDb_kFFQ-3" value="0 .. *" style="text;html=1;align=center;verticalAlign=middle;resizable=0;points=[];autosize=1;strokeColor=none;fillColor=none;" parent="1" vertex="1">
          <mxGeometry x="305" y="513" width="50" height="30" as="geometry" />
        </mxCell>
        <mxCell id="wgfpph5YBYZ9XDb_kFFQ-5" value="&lt;p style=&quot;margin:0px;margin-top:4px;text-align:center;&quot;&gt;&lt;b&gt;order&lt;/b&gt;&lt;/p&gt;&lt;hr size=&quot;1&quot; style=&quot;border-style:solid;&quot;&gt;&lt;p style=&quot;margin:0px;margin-left:4px;&quot;&gt;+ id: int&lt;/p&gt;&lt;p style=&quot;margin:0px;margin-left:4px;&quot;&gt;+ user_id: int&lt;/p&gt;&lt;p style=&quot;margin:0px;margin-left:4px;&quot;&gt;+ product_id: int&lt;/p&gt;&lt;p style=&quot;margin:0px;margin-left:4px;&quot;&gt;+ quantity: int&lt;/p&gt;&lt;p style=&quot;margin:0px;margin-left:4px;&quot;&gt;+ total_price: decimal&lt;/p&gt;&lt;p style=&quot;margin:0px;margin-left:4px;&quot;&gt;+ status: string&amp;nbsp;&lt;/p&gt;&lt;p style=&quot;margin:0px;margin-left:4px;&quot;&gt;+ created_at: timestamp&lt;/p&gt;&lt;p style=&quot;margin:0px;margin-left:4px;&quot;&gt;+ updated_at: timestamp&lt;/p&gt;&lt;hr size=&quot;1&quot; style=&quot;border-style:solid;&quot;&gt;&lt;p style=&quot;margin:0px;margin-left:4px;&quot;&gt;&lt;br&gt;&lt;/p&gt;" style="verticalAlign=top;align=left;overflow=fill;html=1;whiteSpace=wrap;" parent="1" vertex="1">
          <mxGeometry x="910" y="48" width="160" height="170" as="geometry" />
        </mxCell>
        <mxCell id="wgfpph5YBYZ9XDb_kFFQ-6" value="" style="endArrow=diamondThin;endFill=1;endSize=24;html=1;rounded=0;entryX=0.983;entryY=0.464;entryDx=0;entryDy=0;exitX=0;exitY=0.5;exitDx=0;exitDy=0;entryPerimeter=0;" parent="1" source="wgfpph5YBYZ9XDb_kFFQ-5" target="tNdFALO9EnwkVkgYSumE-9" edge="1">
          <mxGeometry width="160" relative="1" as="geometry">
            <mxPoint x="904" y="135" as="sourcePoint" />
            <mxPoint x="826" y="141.41" as="targetPoint" />
          </mxGeometry>
        </mxCell>
        <mxCell id="wgfpph5YBYZ9XDb_kFFQ-7" value="1 .. *" style="text;html=1;align=center;verticalAlign=middle;resizable=0;points=[];autosize=1;strokeColor=none;fillColor=none;" parent="1" vertex="1">
          <mxGeometry x="461" y="-23" width="50" height="30" as="geometry" />
        </mxCell>
        <mxCell id="wgfpph5YBYZ9XDb_kFFQ-8" value="&amp;nbsp;*" style="text;html=1;align=center;verticalAlign=middle;resizable=0;points=[];autosize=1;strokeColor=none;fillColor=none;" parent="1" vertex="1">
          <mxGeometry x="884" y="110" width="30" height="30" as="geometry" />
        </mxCell>
        <mxCell id="wgfpph5YBYZ9XDb_kFFQ-11" value="0 .. *" style="text;html=1;align=center;verticalAlign=middle;resizable=0;points=[];autosize=1;strokeColor=none;fillColor=none;" parent="1" vertex="1">
          <mxGeometry x="307" y="85" width="50" height="30" as="geometry" />
        </mxCell>
        <mxCell id="j-0fcH9BADFxxx1VrhHM-3" value="" style="endArrow=none;html=1;edgeStyle=orthogonalEdgeStyle;rounded=0;exitX=0.75;exitY=1;exitDx=0;exitDy=0;entryX=0;entryY=0.5;entryDx=0;entryDy=0;" edge="1" parent="1" source="tNdFALO9EnwkVkgYSumE-6" target="tNdFALO9EnwkVkgYSumE-14">
          <mxGeometry relative="1" as="geometry">
            <mxPoint x="108" y="550" as="sourcePoint" />
            <mxPoint x="268" y="550" as="targetPoint" />
          </mxGeometry>
        </mxCell>
      </root>
    </mxGraphModel>
  </diagram>
</mxfile>
